<svg xmlns="http://www.w3.org/2000/svg" viewBox="0 0 512 512" role="img" aria-label="momo avatar">
  <defs>
    <linearGradient id="bg" x1="0" y1="0" x2="1" y2="1">
      <stop offset="0" stop-color="#fafafa" />
      <stop offset="1" stop-color="#dcdcdc" />
    </linearGradient>
  </defs>
  <rect width="512" height="512" fill="url(#bg)" />
  <circle cx="256" cy="256" r="206" fill="#f9f9f9" />
  <circle cx="256" cy="256" r="196" fill="#151515" />
  <path d="M105 250c27-95 92-151 167-151 88 0 149 63 151 157 1 44-14 88-42 119-31 35-76 56-127 56-48 0-89-19-120-53-28-30-41-74-29-128Z" fill="#f8f8f8" />
  <path d="M124 241c24-83 80-128 149-128 70 0 121 39 145 112 7 22 9 44 6 66-22-34-51-55-87-62-43-8-75 5-99 38-20-29-51-43-91-42-8 0-16 1-23 3Z" fill="#0e0e0e" />
  <path d="M148 226c12-51 48-89 93-111-29 47-35 90-20 129-24-17-48-23-73-18Zm143-108c43 9 78 43 96 96-39-17-75-16-108 4 21-35 25-69 12-100Z" fill="#fdfdfd" opacity="0.9" />
  <ellipse cx="207" cy="293" rx="21" ry="29" fill="#111111" />
  <ellipse cx="305" cy="293" rx="21" ry="29" fill="#111111" />
  <path d="M195 355c18 18 39 27 62 27 24 0 45-9 63-27" fill="none" stroke="#111111" stroke-width="12" stroke-linecap="round" />
  <path d="M139 418c37 28 75 42 116 42 45 0 85-14 120-42" fill="none" stroke="#ffffff" stroke-width="11" stroke-linecap="round" opacity="0.76" />
</svg>